<svg xmlns="http://www.w3.org/2000/svg" viewBox="0 0 180 180">
  <!-- Loci: ein Zettel Rechenheft-Karo mit dem Schluesselloch im Bogen, Tintenblau (Richtung „Tafel“, Zettel-Stil wie stash.svg) -->
  <defs>
    <clipPath id="blatt"><rect x="42" y="54" width="96" height="84" rx="5"/></clipPath>
  </defs>
  <rect width="180" height="180" fill="#F7F8F3"/>
  <g transform="translate(90 94) scale(1.18) translate(-90 -94)">
    <rect x="42" y="50" width="96" height="84" rx="5" fill="#FFFFFF" stroke="#1E4DB7" stroke-width="4.5" transform="rotate(-10 90 92)"/>
    <rect x="42" y="54" width="96" height="84" rx="5" fill="#FFFFFF"/>
    <path clip-path="url(#blatt)" d="M42 66H138M42 78H138M42 90H138M42 102H138M42 114H138M42 126H138M54 54V138M66 54V138M78 54V138M90 54V138M102 54V138M114 54V138M126 54V138" stroke="#DCE4F2" stroke-width="1.5"/>
    <rect x="42" y="54" width="96" height="84" rx="5" fill="none" stroke="#1E4DB7" stroke-width="4.5"/>
    <path d="M70 128V98a20 20 0 0 1 40 0v30z" fill="#FFFFFF" stroke="#1E4DB7" stroke-width="4.5" stroke-linejoin="round"/>
    <circle cx="90" cy="100" r="6.5" fill="#1E4DB7"/>
    <path d="M86.75 104l-3.25 15h13l-3.25-15z" fill="#1E4DB7"/>
  </g>
</svg>
